<svg xmlns="http://www.w3.org/2000/svg" viewBox="0 0 834 834" width="834" height="834" xml:space="preserve">
	<rect fill="#FED0DD" width="834" height="834"/>
    <path d="M226.4,409.5c37.9,0,54.9-27.7,54.9-75.1s-17.1-75.1-54.9-75.1s-54.9,27.7-54.9,75.1S188.5,409.5,226.4,409.5z
		 M226.4,387.2c-19.3,0-26-15.4-26-40.4v-25c0-25,6.7-40.4,26-40.4s26,15.4,26,40.4v24.8C252.4,371.8,245.7,387.2,226.4,387.2z
		 M334.7,407v-55.3h27.9c28.1,0,43.7-17.5,43.7-44.9c0-27.7-15.6-44.9-43.7-44.9h-55.1V407H334.7z M334.7,284.1h22.3
		c14.6,0,20.6,5.8,20.6,18.7v7.9c0,12.9-6,18.7-20.6,18.7h-22.3V284.1z M526.6,407v-22.5h-64.5v-39.9h62.2v-22.5h-62.2v-37.9h64.5
		v-22.5h-91.7V407H526.6z M621.8,407h33.5V261.8H632V366h-2.1l-38.1-104.2h-33.5V407h23.3V302.8h2.1L621.8,407z"/>
    <path d="M207.9,519.6h16.4L252,576h30l-31-59.5c18.1-4,28.5-19.6,28.5-40.8c0-27.7-15.6-44.9-43.7-44.9h-55.1V576h27.2V519.6z
		 M207.9,498.4v-45.3h22.3c14.6,0,20.6,5.8,20.6,18.7v7.9c0,12.9-6,18.7-20.6,18.7H207.9z M368.2,576h33.5V430.8h-23.3V535h-2.1
		l-38.1-104.2h-33.5V576H328V471.8h2.1L368.2,576z M432.8,576h45.1c37.6,0,56-25.6,56-72.6s-18.3-72.6-56-72.6h-45.1V576z
		 M459.6,554.2V452.7H476c20,0,29.3,13.5,29.3,38.1v25.2c0,24.8-9.4,38.3-29.3,38.3H459.6z M588.3,519.6h16.4l27.7,56.4h30l-31-59.5
		c18.1-4,28.5-19.6,28.5-40.8c0-27.7-15.6-44.9-43.7-44.9H561V576h27.2V519.6z M588.3,498.4v-45.3h22.3c14.6,0,20.6,5.8,20.6,18.7
		v7.9c0,12.9-6,18.7-20.6,18.7H588.3z"/>
</svg>